<svg viewBox="200 200 400 400" fill="none" xmlns="http://www.w3.org/2000/svg">
<path d="M399.962 599.969C378.824 599.969 357.686 599.969 336.549 599.969C329.052 599.969 321.679 598.593 314.674 595.591C305.457 591.714 297.838 585.711 291.693 577.832C270.924 551.192 250.032 524.678 229.14 498.038C223.61 491.034 218.08 483.905 212.55 476.901C203.456 465.145 199.154 451.888 200.138 437.005C200.506 431.377 201.858 425.748 203.087 420.245C212.058 380.849 220.907 341.577 229.632 302.431C233.81 283.796 244.256 270.288 261.093 262.034C299.189 243.399 337.163 224.638 375.26 206.003C391.728 197.999 408.318 197.999 424.786 206.003C462.883 224.638 501.103 243.274 539.199 262.034C555.79 270.163 566.236 283.671 570.291 301.931C579.754 343.829 589.094 385.727 598.434 427.624C602.366 445.509 598.925 461.893 587.742 476.276C561.197 510.42 534.529 544.438 507.739 578.332C496.433 592.59 481.44 599.719 463.497 599.844C442.36 600.094 421.222 599.969 399.962 599.969ZM399.962 563.574C415.446 563.574 431.054 563.574 446.538 563.574C449.856 563.574 453.174 563.324 456.492 562.698C470.748 560.072 482.3 552.943 491.271 541.437C498.891 531.681 506.51 522.051 514.006 512.296C525.558 497.538 537.233 482.78 548.785 467.897C559.968 453.514 563.901 437.255 559.968 419.37C553.332 388.603 546.327 357.836 539.322 327.069C535.144 308.81 524.821 295.427 508.23 287.173C480.702 273.54 453.051 260.033 425.401 246.525C408.441 238.271 391.482 238.271 374.523 246.525C347.118 260.033 319.59 273.54 292.062 287.048C275.348 295.302 264.902 308.684 260.724 327.069C254.456 354.835 248.189 382.6 242.044 410.365C240.815 415.868 239.463 421.246 238.972 426.874C237.62 442.508 242.167 456.39 251.876 468.647C270.678 492.535 289.481 516.423 308.161 540.436C320.204 555.945 335.811 563.574 355.229 563.574C370.099 563.574 384.969 563.574 399.962 563.574Z" fill="#372579"/>
</svg>
